<svg height="96" viewBox="0 0 64 64" width="96" xmlns="http://www.w3.org/2000/svg"><g id="media-monitor-screen-Digital_Marketing" data-name="media-monitor-screen-Digital Marketing"><path d="m5 16h54a2 2 0 0 1 2 2v30a0 0 0 0 1 0 0h-58a0 0 0 0 1 0 0v-30a2 2 0 0 1 2-2z" fill="#3780ea"></path><path d="m7 28h26v16h-26z" fill="#896ff7"></path><path d="m42 57v4h-20v-4h7 6z" fill="#e8e5fb"></path><path d="m29 51h6v6h-6z" fill="#8e95a3"></path><path d="m61 49v1a2.006 2.006 0 0 1 -2 2h-54a2.006 2.006 0 0 1 -2-2v-2h58z" fill="#e8e5fb"></path><path d="m8 6h20v16h-20z" fill="#78b9eb"></path><path d="m33 28-13 8-13-8z" fill="#b9b1f1"></path><path d="m36 7h7v8h-7z" fill="#e8e5fb"></path><path d="m41 15-1 7h-3v-7z" fill="#c7bec5"></path><path d="m59.41 9.59a1.955 1.955 0 0 1 .59 1.41 2.006 2.006 0 0 1 -2 2h-2v-4h2a1.955 1.955 0 0 1 1.41.59z" fill="#ec455a"></path><path d="m56 3v16l-13-4v-8z" fill="#f6cc4f"></path><path d="m33 9h3v4h-3z" fill="#ec455a"></path><path d="m37 26h18v12h-18z" fill="#9e2849"></path><path d="m57 30v12h-17v-4-8h15z" fill="#ec455a"></path><g fill="#e8e5fb"><path d="m43 33h2v2h-2z"></path><path d="m47 33h7v2h-7z"></path><path d="m43 37h4v2h-4z"></path><path d="m49 37h5v2h-5z"></path></g><path d="m29 52h6v2h-6z" fill="#636263"></path><path d="m22 14-7 4v-8z" fill="#ec455a"></path></g></svg>