<svg id="Layer_1" enable-background="new 0 0 512 512" height="96" viewBox="0 0 512 512" width="96" xmlns="http://www.w3.org/2000/svg"><g><g><g><path d="m472 368h-432v-208c0-17.673 14.327-32 32-32h368c17.673 0 32 14.327 32 32z" fill="#463c4b"></path></g><g><path d="m440 368h-400v-208c0-17.673 14.327-32 32-32h336c17.673 0 32 14.327 32 32z" fill="#555a6e"></path></g><g><path d="m72 408h368c17.673 0 32-14.327 32-32v-8h-432v8c0 17.673 14.327 32 32 32z" fill="#a5c3dc"></path></g><g><path d="m408 408h-336c-17.673 0-32-14.327-32-32v-8h400v8c0 17.673-14.327 32-32 32z" fill="#d7e6f0"></path></g><g><path d="m208 408h72v32h-72z" fill="#a5c3dc"></path></g><g><path d="m208 424h48v16h-48z" fill="#d7e6f0"></path></g><g><path d="m320 464h-160v-8c0-8.837 7.163-16 16-16h128c8.837 0 16 7.163 16 16z" fill="#d7e6f0"></path></g><g><path d="m320 464h-48v-8c0-8.837 7.163-16 16-16h16c8.837 0 16 7.163 16 16z" fill="#a5c3dc"></path></g></g><g><g><path d="m72 108.789h29.333v259.211h-29.333z" fill="#ff8caf"></path></g><g><path d="m101.333 108.789h26.667v259.211h-26.667z" fill="#ff6e91"></path></g><g><path d="m128 108.789h29.333v259.211h-29.333z" fill="#e64178"></path></g><g><path d="m114.667 108.789v-48h-10.667l-32 48z" fill="#fab991"></path></g><g><path d="m114.667 108.789v-48h10.666l32 48z" fill="#f0915a"></path></g><g><path d="m104 60.789 7.338-11.008c1.583-2.375 5.073-2.375 6.656 0l7.338 11.008z" fill="#353744"></path></g></g><g fill="#00d2d2"><path d="m408 280h-2.584l-29.988-74.971c-1.215-3.038-4.157-5.029-7.428-5.029h-16c-4.418 0-8 3.582-8 8s3.582 8 8 8h4.184l-25.6 64h-2.584c-4.418 0-8 3.582-8 8s3.582 8 8 8h8.146.012 7.842c4.418 0 8-3.582 8-8 0-3.164-1.842-5.892-4.508-7.189l3.55-8.873c.315.037.634.063.959.063h32c.325 0 .644-.025.959-.063l3.55 8.873c-2.668 1.297-4.51 4.025-4.51 7.189 0 4.418 3.582 8 8 8h7.977c.009 0 .017.002.026.002.014 0 .028-.002.042-.002h7.955c4.418 0 8-3.582 8-8s-3.582-8-8-8zm-50.584-24 10.584-26.459 10.584 26.459z"></path><path d="m444 304.524v-113.048c6.897-1.778 12-8.022 12-15.476 0-8.837-7.163-16-16-16-7.453 0-13.697 5.103-15.476 12h-113.048c-1.779-6.897-8.023-12-15.476-12-8.837 0-16 7.163-16 16 0 7.453 5.103 13.697 12 15.476v113.049c-6.897 1.778-12 8.022-12 15.476 0 8.837 7.163 16 16 16 7.453 0 13.697-5.103 15.476-12h113.049c1.779 6.897 8.023 12 15.476 12 8.837 0 16-7.163 16-16-.001-7.454-5.104-13.698-12.001-15.477zm-19.476 11.476h-113.048c-1.448-5.616-5.859-10.027-11.476-11.476v-113.048c5.616-1.448 10.027-5.859 11.476-11.476h113.049c1.448 5.616 5.859 10.027 11.476 11.476v113.049c-5.617 1.448-10.028 5.859-11.477 11.475z"></path></g><g><path d="m248 80h-56c-8.837 0-16 7.163-16 16v272h88v-272c0-8.837-7.163-16-16-16z" fill="#00d2d2"></path></g><g><path d="m248 80h-16v288h32v-272c0-8.837-7.163-16-16-16z" fill="#289bc3"></path></g><g><path d="m256 128h8v-16h-8c-4.418 0-8 3.582-8 8 0 4.418 3.582 8 8 8z" fill="#00d2d2"></path></g><g><path d="m256 192h8v-16h-8c-4.418 0-8 3.582-8 8 0 4.418 3.582 8 8 8z" fill="#00d2d2"></path></g><g><path d="m256 256h8v-16h-8c-4.418 0-8 3.582-8 8 0 4.418 3.582 8 8 8z" fill="#00d2d2"></path></g><g><path d="m256 320h8v-16h-8c-4.418 0-8 3.582-8 8 0 4.418 3.582 8 8 8z" fill="#00d2d2"></path></g></g></svg>