<?xml version="1.0" encoding="UTF-8"?> <svg xmlns="http://www.w3.org/2000/svg" xmlns:xlink="http://www.w3.org/1999/xlink" width="281.93" height="281.183" viewBox="0 0 281.93 281.183"><defs><linearGradient id="linear-gradient" y1="0.5" x2="1" y2="0.5" gradientUnits="objectBoundingBox"><stop offset="0" stop-color="#df44c6"></stop><stop offset="1" stop-color="#7f3fd9"></stop></linearGradient><linearGradient id="linear-gradient-2" x1="0" y1="0.5" x2="1" y2="0.5" xlink:href="#linear-gradient"></linearGradient><linearGradient id="linear-gradient-3" x1="0" y1="0.5" x2="1" y2="0.5" xlink:href="#linear-gradient"></linearGradient><linearGradient id="linear-gradient-5" x1="0" y1="0.5" x2="1" y2="0.5" xlink:href="#linear-gradient"></linearGradient><linearGradient id="linear-gradient-6" x1="0" y1="0.5" x2="1" y2="0.5" xlink:href="#linear-gradient"></linearGradient><linearGradient id="linear-gradient-7" x1="0" y1="0.5" x2="1" y2="0.5" xlink:href="#linear-gradient"></linearGradient><linearGradient id="linear-gradient-8" x1="0" y1="0.5" x2="1" y2="0.5" xlink:href="#linear-gradient"></linearGradient><linearGradient id="linear-gradient-10" x1="0" y1="0.5" x2="1" y2="0.5" xlink:href="#linear-gradient"></linearGradient><linearGradient id="linear-gradient-11" x1="0" y1="0.5" x2="1" y2="0.5" xlink:href="#linear-gradient"></linearGradient><linearGradient id="linear-gradient-15" x1="0" y1="0.5" x2="1" y2="0.5" xlink:href="#linear-gradient"></linearGradient><linearGradient id="linear-gradient-16" x1="0" y1="0.5" x2="1" y2="0.5" xlink:href="#linear-gradient"></linearGradient><linearGradient id="linear-gradient-17" x1="0" y1="0.5" x2="1" y2="0.5" xlink:href="#linear-gradient"></linearGradient><linearGradient id="linear-gradient-18" x1="0" y1="0.5" x2="1" y2="0.5" xlink:href="#linear-gradient"></linearGradient><linearGradient id="linear-gradient-19" x1="0" y1="0.5" x2="1" y2="0.5" xlink:href="#linear-gradient"></linearGradient><linearGradient id="linear-gradient-20" x1="0" y1="0.5" x2="1" y2="0.5" xlink:href="#linear-gradient"></linearGradient><linearGradient id="linear-gradient-22" x1="0" y1="0.5" x2="1" y2="0.5" xlink:href="#linear-gradient"></linearGradient><linearGradient id="linear-gradient-26" x1="0" y1="0.5" x2="1" y2="0.5" xlink:href="#linear-gradient"></linearGradient><linearGradient id="linear-gradient-28" x1="0" y1="0.5" x2="1" y2="0.5" xlink:href="#linear-gradient"></linearGradient><linearGradient id="linear-gradient-29" x1="0" y1="0.5" x2="1" y2="0.5" xlink:href="#linear-gradient"></linearGradient><linearGradient id="linear-gradient-31" x1="0" y1="0.5" x2="1" y2="0.5" xlink:href="#linear-gradient"></linearGradient><linearGradient id="linear-gradient-32" x1="0" y1="0.5" x2="1" y2="0.5" xlink:href="#linear-gradient"></linearGradient><linearGradient id="linear-gradient-33" x1="0" y1="0.5" x2="1" y2="0.5" xlink:href="#linear-gradient"></linearGradient><linearGradient id="linear-gradient-56" x1="0" y1="0.5" x2="1" y2="0.5" xlink:href="#linear-gradient"></linearGradient><linearGradient id="linear-gradient-57" x1="0" y1="0.5" x2="1" y2="0.5" xlink:href="#linear-gradient"></linearGradient><linearGradient id="linear-gradient-73" x1="0" y1="0.5" x2="1" y2="0.5" xlink:href="#linear-gradient"></linearGradient><linearGradient id="linear-gradient-76" x1="0" y1="0.5" x2="1" y2="0.5" xlink:href="#linear-gradient"></linearGradient><linearGradient id="linear-gradient-86" x1="0" y1="0.5" x2="1" y2="0.5" xlink:href="#linear-gradient"></linearGradient><linearGradient id="linear-gradient-87" x1="0" y1="0.5" x2="1" y2="0.5" xlink:href="#linear-gradient"></linearGradient><linearGradient id="linear-gradient-89" x1="0" y1="0.5" x2="1" y2="0.5" xlink:href="#linear-gradient"></linearGradient><linearGradient id="linear-gradient-106" x1="0" y1="0.5" x2="1" y2="0.5" xlink:href="#linear-gradient"></linearGradient><linearGradient id="linear-gradient-125" x1="0" y1="0.5" x2="1" y2="0.5" xlink:href="#linear-gradient"></linearGradient><linearGradient id="linear-gradient-143" x1="0" y1="0.5" x2="1" y2="0.5" xlink:href="#linear-gradient"></linearGradient><linearGradient id="linear-gradient-162" x1="0" y1="0.5" x2="1" y2="0.5" xlink:href="#linear-gradient"></linearGradient><linearGradient id="linear-gradient-175" x1="0" y1="0.5" x2="1" y2="0.5" xlink:href="#linear-gradient"></linearGradient><linearGradient id="linear-gradient-176" x1="0" y1="0.5" x2="1" y2="0.5" xlink:href="#linear-gradient"></linearGradient><linearGradient id="linear-gradient-178" x1="0" y1="0.5" x2="1" y2="0.5" xlink:href="#linear-gradient"></linearGradient><linearGradient id="linear-gradient-196" x1="0" y1="0.5" x2="1" y2="0.5" xlink:href="#linear-gradient"></linearGradient><linearGradient id="linear-gradient-269" x1="0" y1="0.5" x2="1" y2="0.5" xlink:href="#linear-gradient"></linearGradient><linearGradient id="linear-gradient-278" x1="0" y1="0.5" x2="1" y2="0.5" xlink:href="#linear-gradient"></linearGradient></defs><g id="Group_11" data-name="Group 11" opacity="0.3"><g id="Group_10" data-name="Group 10" transform="translate(0 0)"><path id="Path_24" data-name="Path 24" d="M470.354,725.556a2.994,2.994,0,0,0-2.852,2.1,2.873,2.873,0,0,0-.142.9,3,3,0,1,0,5.992,0,2.963,2.963,0,0,0-.619-1.818A3,3,0,0,0,470.354,725.556Z" transform="translate(-353.737 -725.556)" fill="#0f62ac"></path><path id="Path_25" data-name="Path 25" d="M463.521,727.989c-1.243.343-2.471.7-3.7,1.082a3,3,0,0,0,3.7-1.082Z" transform="translate(-360.639 -723.328)" fill="#0f62ac"></path><path id="Path_26" data-name="Path 26" d="M478.83,725.556a3,3,0,1,0,3,3A3,3,0,0,0,478.83,725.556Z" transform="translate(-345.98 -725.556)" fill="#0f62ac"></path><path id="Path_27" data-name="Path 27" d="M487.3,725.556a3,3,0,1,0,3,3A3,3,0,0,0,487.3,725.556Z" transform="translate(-338.221 -725.556)" fill="#0f62ac"></path><path id="Path_28" data-name="Path 28" d="M493.37,726.191a3,3,0,1,0,5.4,1.782,3.112,3.112,0,0,0-.125-.85Q496.024,726.608,493.37,726.191Z" transform="translate(-330.463 -724.975)" fill="#0f62ac"></path><path id="Path_29" data-name="Path 29" d="M503.977,729.281a2.956,2.956,0,0,0,1.094-.209q-1.753-.54-3.521-1.038A2.978,2.978,0,0,0,503.977,729.281Z" transform="translate(-322.433 -723.287)" fill="#0f62ac"></path><path id="Path_30" data-name="Path 30" d="M446.9,734.958q-1.965,1.123-3.9,2.31a3.035,3.035,0,0,0,.952.157A2.992,2.992,0,0,0,446.9,734.958Z" transform="translate(-376.036 -716.947)" fill="#0f62ac"></path><path id="Path_31" data-name="Path 31" d="M453.41,733.117a3,3,0,1,0,3,3A3,3,0,0,0,453.41,733.117Z" transform="translate(-369.255 -718.633)" fill="#0f62ac"></path><path id="Path_32" data-name="Path 32" d="M461.883,733.117a3,3,0,1,0,2.994,3A2.995,2.995,0,0,0,461.883,733.117Z" transform="translate(-361.495 -718.633)" fill="#0f62ac"></path><path id="Path_33" data-name="Path 33" d="M470.354,733.117a3,3,0,1,0,3,3A3,3,0,0,0,470.354,733.117Z" transform="translate(-353.737 -718.633)" fill="#0f62ac"></path><path id="Path_34" data-name="Path 34" d="M478.83,733.117a3,3,0,1,0,3,3A3,3,0,0,0,478.83,733.117Z" transform="translate(-345.98 -718.633)" fill="#0f62ac"></path><path id="Path_35" data-name="Path 35" d="M487.3,733.117a3,3,0,1,0,3,3A3,3,0,0,0,487.3,733.117Z" transform="translate(-338.221 -718.633)" fill="#0f62ac"></path><path id="Path_36" data-name="Path 36" d="M495.774,733.117a3,3,0,1,0,3,3A3,3,0,0,0,495.774,733.117Z" transform="translate(-330.463 -718.633)" fill="#0f62ac"></path><path id="Path_37" data-name="Path 37" d="M504.25,733.117a3,3,0,1,0,3,3A3,3,0,0,0,504.25,733.117Z" transform="translate(-322.705 -718.633)" fill="#0f62ac"></path><path id="Path_38" data-name="Path 38" d="M512.723,733.117a3,3,0,1,0,2.994,3A3,3,0,0,0,512.723,733.117Z" transform="translate(-314.946 -718.633)" fill="#0f62ac"></path><path id="Path_39" data-name="Path 39" d="M521.156,737.348a3,3,0,0,0,.783-.107q-1.83-1.126-3.7-2.2A3,3,0,0,0,521.156,737.348Z" transform="translate(-307.149 -716.871)" fill="#0f62ac"></path><path id="Path_40" data-name="Path 40" d="M438.187,741.031q-2.313,1.813-4.538,3.724a3,3,0,1,0,4.538-3.724Z" transform="translate(-384.604 -711.387)" fill="#0f62ac"></path><path id="Path_41" data-name="Path 41" d="M444.934,740.679a3,3,0,1,0,3,3A3,3,0,0,0,444.934,740.679Z" transform="translate(-377.012 -711.709)" fill="#0f62ac"></path><path id="Path_42" data-name="Path 42" d="M453.41,740.679a3,3,0,1,0,3,3A3,3,0,0,0,453.41,740.679Z" transform="translate(-369.255 -711.709)" fill="#0f62ac"></path><path id="Path_43" data-name="Path 43" d="M461.883,740.679a3,3,0,1,0,2.994,3A2.993,2.993,0,0,0,461.883,740.679Z" transform="translate(-361.495 -711.709)" fill="#0f62ac"></path><path id="Path_44" data-name="Path 44" d="M470.354,740.679a3,3,0,1,0,3,3A3,3,0,0,0,470.354,740.679Z" transform="translate(-353.737 -711.709)" fill="#0f62ac"></path><path id="Path_45" data-name="Path 45" d="M478.83,740.679a3,3,0,1,0,3,3A3,3,0,0,0,478.83,740.679Z" transform="translate(-345.98 -711.709)" fill="#0f62ac"></path><path id="Path_46" data-name="Path 46" d="M487.3,740.679a3,3,0,1,0,3,3A3,3,0,0,0,487.3,740.679Z" transform="translate(-338.221 -711.709)" fill="#0f62ac"></path><path id="Path_47" data-name="Path 47" d="M495.774,740.679a3,3,0,1,0,3,3A3,3,0,0,0,495.774,740.679Z" transform="translate(-330.463 -711.709)" fill="#0f62ac"></path><path id="Path_48" data-name="Path 48" d="M504.25,740.679a3,3,0,1,0,3,3A3,3,0,0,0,504.25,740.679Z" transform="translate(-322.705 -711.709)" fill="#0f62ac"></path><path id="Path_49" data-name="Path 49" d="M512.723,740.679a3,3,0,1,0,2.994,3A2.994,2.994,0,0,0,512.723,740.679Z" transform="translate(-314.946 -711.709)" fill="#0f62ac"></path><path id="Path_50" data-name="Path 50" d="M521.2,740.679a3,3,0,1,0,3,3A3,3,0,0,0,521.2,740.679Z" transform="translate(-307.19 -711.709)" fill="#0f62ac"></path><path id="Path_51" data-name="Path 51" d="M529.669,746.3a2.992,2.992,0,0,0,2.563-1.452q-2.247-1.928-4.574-3.762a2.994,2.994,0,0,0,2.011,5.214Z" transform="translate(-299.43 -711.337)" fill="#0f62ac"></path><path id="Path_52" data-name="Path 52" d="M425.58,753.154a3,3,0,0,0,3.994-4.456Q427.531,750.885,425.58,753.154Z" transform="translate(-391.992 -704.367)" fill="#0f62ac"></path><path id="Path_53" data-name="Path 53" d="M436.464,748.239a3,3,0,1,0,3,3A3,3,0,0,0,436.464,748.239Z" transform="translate(-384.771 -704.787)" fill="#0f62ac"></path><path id="Path_54" data-name="Path 54" d="M444.934,748.239a3,3,0,1,0,3,3A3,3,0,0,0,444.934,748.239Z" transform="translate(-377.012 -704.787)" fill="#0f62ac"></path><path id="Path_55" data-name="Path 55" d="M453.41,748.239a3,3,0,1,0,3,3A3,3,0,0,0,453.41,748.239Z" transform="translate(-369.255 -704.787)" fill="#0f62ac"></path><path id="Path_56" data-name="Path 56" d="M461.883,748.239a3,3,0,1,0,2.994,3A2.994,2.994,0,0,0,461.883,748.239Z" transform="translate(-361.495 -704.787)" fill="#0f62ac"></path><path id="Path_57" data-name="Path 57" d="M470.354,748.239a3,3,0,1,0,3,3A3,3,0,0,0,470.354,748.239Z" transform="translate(-353.737 -704.787)" fill="#0f62ac"></path><path id="Path_58" data-name="Path 58" d="M478.83,748.239a3,3,0,1,0,3,3A3,3,0,0,0,478.83,748.239Z" transform="translate(-345.98 -704.787)" fill="#0f62ac"></path><path id="Path_59" data-name="Path 59" d="M487.3,748.239a3,3,0,1,0,3,3A3,3,0,0,0,487.3,748.239Z" transform="translate(-338.221 -704.787)" fill="#0f62ac"></path><path id="Path_60" data-name="Path 60" d="M495.774,748.239a3,3,0,1,0,3,3A3,3,0,0,0,495.774,748.239Z" transform="translate(-330.463 -704.787)" fill="#0f62ac"></path><path id="Path_61" data-name="Path 61" d="M504.25,748.239a3,3,0,1,0,3,3A3,3,0,0,0,504.25,748.239Z" transform="translate(-322.705 -704.787)" fill="#0f62ac"></path><path id="Path_62" data-name="Path 62" d="M512.723,748.239a3,3,0,1,0,2.994,3A3,3,0,0,0,512.723,748.239Z" transform="translate(-314.946 -704.787)" fill="#0f62ac"></path><path id="Path_63" data-name="Path 63" d="M521.2,748.239a3,3,0,1,0,3,3A3,3,0,0,0,521.2,748.239Z" transform="translate(-307.19 -704.787)" fill="#0f62ac"></path><path id="Path_64" data-name="Path 64" d="M529.669,748.239a3,3,0,1,0,3,3A3,3,0,0,0,529.669,748.239Z" transform="translate(-299.43 -704.787)" fill="#0f62ac"></path><path id="Path_65" data-name="Path 65" d="M538.145,753.746a2.989,2.989,0,0,0,1.716-.542q-1.939-2.259-3.963-4.435a2.994,2.994,0,0,0,2.247,4.977Z" transform="translate(-291.671 -704.302)" fill="#0f62ac"></path><path id="Path_66" data-name="Path 66" d="M427.989,755.8a3,3,0,1,0,3,3A3,3,0,0,0,427.989,755.8Z" transform="translate(-392.529 -697.864)" fill="#0f62ac"></path><path id="Path_67" data-name="Path 67" d="M436.464,755.8a3,3,0,1,0,3,3A3,3,0,0,0,436.464,755.8Z" transform="translate(-384.771 -697.864)" fill="#0f62ac"></path><path id="Path_68" data-name="Path 68" d="M444.934,755.8a3,3,0,1,0,3,3A3,3,0,0,0,444.934,755.8Z" transform="translate(-377.012 -697.864)" fill="#0f62ac"></path><path id="Path_69" data-name="Path 69" d="M453.41,755.8a3,3,0,1,0,3,3A3,3,0,0,0,453.41,755.8Z" transform="translate(-369.255 -697.864)" fill="#0f62ac"></path><path id="Path_70" data-name="Path 70" d="M461.883,755.8a3,3,0,1,0,2.994,3A2.993,2.993,0,0,0,461.883,755.8Z" transform="translate(-361.495 -697.864)" fill="#0f62ac"></path><path id="Path_71" data-name="Path 71" d="M470.354,755.8a3,3,0,1,0,3,3A3,3,0,0,0,470.354,755.8Z" transform="translate(-353.737 -697.864)" fill="#0f62ac"></path><path id="Path_72" data-name="Path 72" d="M478.83,755.8a3,3,0,1,0,3,3A3,3,0,0,0,478.83,755.8Z" transform="translate(-345.98 -697.864)" fill="#0f62ac"></path><path id="Path_73" data-name="Path 73" d="M487.3,755.8a3,3,0,1,0,3,3A3,3,0,0,0,487.3,755.8Z" transform="translate(-338.221 -697.864)" fill="#0f62ac"></path><path id="Path_74" data-name="Path 74" d="M495.774,755.8a3,3,0,1,0,3,3A3,3,0,0,0,495.774,755.8Z" transform="translate(-330.463 -697.864)" fill="#0f62ac"></path><path id="Path_75" data-name="Path 75" d="M504.25,755.8a3,3,0,1,0,3,3A3,3,0,0,0,504.25,755.8Z" transform="translate(-322.705 -697.864)" fill="#0f62ac"></path><path id="Path_76" data-name="Path 76" d="M512.723,755.8a3,3,0,1,0,2.994,3A2.995,2.995,0,0,0,512.723,755.8Z" transform="translate(-314.946 -697.864)" fill="#0f62ac"></path><path id="Path_77" data-name="Path 77" d="M521.2,755.8a3,3,0,1,0,3,3A3,3,0,0,0,521.2,755.8Z" transform="translate(-307.19 -697.864)" fill="#0f62ac"></path><path id="Path_78" data-name="Path 78" d="M529.669,755.8a3,3,0,1,0,3,3A2.995,2.995,0,0,0,529.669,755.8Z" transform="translate(-299.43 -697.864)" fill="#0f62ac"></path><path id="Path_79" data-name="Path 79" d="M538.145,755.8a3,3,0,1,0,2.992,3A3,3,0,0,0,538.145,755.8Z" transform="translate(-291.671 -697.864)" fill="#0f62ac"></path><path id="Path_80" data-name="Path 80" d="M419.516,763.361a3,3,0,1,0,3,3A3,3,0,0,0,419.516,763.361Z" transform="translate(-400.289 -690.941)" fill="#0f62ac"></path><path id="Path_81" data-name="Path 81" d="M427.989,763.361a3,3,0,1,0,3,3A3,3,0,0,0,427.989,763.361Z" transform="translate(-392.529 -690.941)" fill="#0f62ac"></path><path id="Path_82" data-name="Path 82" d="M436.464,763.361a3,3,0,1,0,3,3A3,3,0,0,0,436.464,763.361Z" transform="translate(-384.771 -690.941)" fill="#0f62ac"></path><path id="Path_83" data-name="Path 83" d="M444.934,763.361a3,3,0,1,0,3,3A2.994,2.994,0,0,0,444.934,763.361Z" transform="translate(-377.012 -690.941)" fill="#0f62ac"></path><path id="Path_84" data-name="Path 84" d="M453.41,763.361a3,3,0,1,0,3,3A2.995,2.995,0,0,0,453.41,763.361Z" transform="translate(-369.255 -690.941)" fill="#0f62ac"></path><path id="Path_85" data-name="Path 85" d="M461.883,763.361a3,3,0,1,0,2.994,3A2.992,2.992,0,0,0,461.883,763.361Z" transform="translate(-361.495 -690.941)" fill="#0f62ac"></path><path id="Path_86" data-name="Path 86" d="M470.354,763.361a3,3,0,1,0,3,3A2.994,2.994,0,0,0,470.354,763.361Z" transform="translate(-353.737 -690.941)" fill="#0f62ac"></path><path id="Path_87" data-name="Path 87" d="M478.83,763.361a3,3,0,1,0,3,3A2.995,2.995,0,0,0,478.83,763.361Z" transform="translate(-345.98 -690.941)" fill="#0f62ac"></path><path id="Path_88" data-name="Path 88" d="M487.3,763.361a3,3,0,1,0,3,3A2.995,2.995,0,0,0,487.3,763.361Z" transform="translate(-338.221 -690.941)" fill="#0f62ac"></path><path id="Path_89" data-name="Path 89" d="M495.774,763.361a3,3,0,1,0,3,3A2.994,2.994,0,0,0,495.774,763.361Z" transform="translate(-330.463 -690.941)" fill="#0f62ac"></path><path id="Path_90" data-name="Path 90" d="M504.25,763.361a3,3,0,1,0,3,3A2.995,2.995,0,0,0,504.25,763.361Z" transform="translate(-322.705 -690.941)" fill="#0f62ac"></path><path id="Path_91" data-name="Path 91" d="M512.723,763.361a3,3,0,1,0,2.994,3A2.993,2.993,0,0,0,512.723,763.361Z" transform="translate(-314.946 -690.941)" fill="#0f62ac"></path><path id="Path_92" data-name="Path 92" d="M521.2,763.361a3,3,0,1,0,3,3A3,3,0,0,0,521.2,763.361Z" transform="translate(-307.19 -690.941)" fill="#0f62ac"></path><path id="Path_93" data-name="Path 93" d="M529.669,763.361a3,3,0,1,0,3,3A2.993,2.993,0,0,0,529.669,763.361Z" transform="translate(-299.43 -690.941)" fill="#0f62ac"></path><path id="Path_94" data-name="Path 94" d="M538.145,763.361a3,3,0,1,0,2.992,3A2.995,2.995,0,0,0,538.145,763.361Z" transform="translate(-291.671 -690.941)" fill="#0f62ac"></path><path id="Path_95" data-name="Path 95" d="M546.619,763.361a3,3,0,1,0,2.994,3A3,3,0,0,0,546.619,763.361Z" transform="translate(-283.914 -690.941)" fill="#0f62ac"></path><path id="Path_96" data-name="Path 96" d="M419.516,770.921a3,3,0,1,0,3,3A3,3,0,0,0,419.516,770.921Z" transform="translate(-400.289 -684.019)" fill="#0f62ac"></path><path id="Path_97" data-name="Path 97" d="M427.989,770.921a3,3,0,1,0,3,3A3,3,0,0,0,427.989,770.921Z" transform="translate(-392.529 -684.019)" fill="#0f62ac"></path><path id="Path_98" data-name="Path 98" d="M436.464,770.921a3,3,0,1,0,3,3A3,3,0,0,0,436.464,770.921Z" transform="translate(-384.771 -684.019)" fill="#0f62ac"></path><path id="Path_99" data-name="Path 99" d="M444.934,770.921a3,3,0,1,0,3,3A3,3,0,0,0,444.934,770.921Z" transform="translate(-377.012 -684.019)" fill="#0f62ac"></path><path id="Path_100" data-name="Path 100" d="M453.41,770.921a3,3,0,1,0,3,3A3,3,0,0,0,453.41,770.921Z" transform="translate(-369.255 -684.019)" fill="#0f62ac"></path><path id="Path_101" data-name="Path 101" d="M461.883,770.921a3,3,0,1,0,2.994,3A2.994,2.994,0,0,0,461.883,770.921Z" transform="translate(-361.495 -684.019)" fill="#0f62ac"></path><path id="Path_102" data-name="Path 102" d="M470.354,770.921a3,3,0,1,0,3,3A3,3,0,0,0,470.354,770.921Z" transform="translate(-353.737 -684.019)" fill="#0f62ac"></path><path id="Path_103" data-name="Path 103" d="M478.83,770.921a3,3,0,1,0,3,3A3,3,0,0,0,478.83,770.921Z" transform="translate(-345.98 -684.019)" fill="#0f62ac"></path><path id="Path_104" data-name="Path 104" d="M487.3,770.921a3,3,0,1,0,3,3A3,3,0,0,0,487.3,770.921Z" transform="translate(-338.221 -684.019)" fill="#0f62ac"></path><path id="Path_105" data-name="Path 105" d="M495.774,770.921a3,3,0,1,0,3,3A3,3,0,0,0,495.774,770.921Z" transform="translate(-330.463 -684.019)" fill="#0f62ac"></path><path id="Path_106" data-name="Path 106" d="M504.25,770.921a3,3,0,1,0,3,3A3,3,0,0,0,504.25,770.921Z" transform="translate(-322.705 -684.019)" fill="#0f62ac"></path><path id="Path_107" data-name="Path 107" d="M512.723,770.921a3,3,0,1,0,2.994,3A3,3,0,0,0,512.723,770.921Z" transform="translate(-314.946 -684.019)" fill="#0f62ac"></path><path id="Path_108" data-name="Path 108" d="M521.2,770.921a3,3,0,1,0,3,3A3,3,0,0,0,521.2,770.921Z" transform="translate(-307.19 -684.019)" fill="#0f62ac"></path><path id="Path_109" data-name="Path 109" d="M529.669,770.921a3,3,0,1,0,3,3A3,3,0,0,0,529.669,770.921Z" transform="translate(-299.43 -684.019)" fill="#0f62ac"></path><path id="Path_110" data-name="Path 110" d="M538.145,770.921a3,3,0,1,0,2.992,3A3,3,0,0,0,538.145,770.921Z" transform="translate(-291.671 -684.019)" fill="#0f62ac"></path><path id="Path_111" data-name="Path 111" d="M546.619,770.921a3,3,0,1,0,2.994,3A3,3,0,0,0,546.619,770.921Z" transform="translate(-283.914 -684.019)" fill="#0f62ac"></path><path id="Path_112" data-name="Path 112" d="M411.263,778.834q-.744,2.618-1.391,5.274a2.991,2.991,0,0,0,1.391-5.274Z" transform="translate(-406.374 -676.774)" fill="#0f62ac"></path><path id="Path_113" data-name="Path 113" d="M419.516,778.482a3,3,0,1,0,3,3A3,3,0,0,0,419.516,778.482Z" transform="translate(-400.289 -677.096)" fill="#0f62ac"></path><path id="Path_114" data-name="Path 114" d="M427.989,778.482a3,3,0,1,0,3,3A3,3,0,0,0,427.989,778.482Z" transform="translate(-392.529 -677.096)" fill="#0f62ac"></path><path id="Path_115" data-name="Path 115" d="M436.464,778.482a3,3,0,1,0,3,3A3,3,0,0,0,436.464,778.482Z" transform="translate(-384.771 -677.096)" fill="#0f62ac"></path><path id="Path_116" data-name="Path 116" d="M444.934,778.482a3,3,0,1,0,3,3A3,3,0,0,0,444.934,778.482Z" transform="translate(-377.012 -677.096)" fill="#0f62ac"></path><path id="Path_117" data-name="Path 117" d="M453.41,778.482a3,3,0,1,0,3,3A3,3,0,0,0,453.41,778.482Z" transform="translate(-369.255 -677.096)" fill="#0f62ac"></path><path id="Path_118" data-name="Path 118" d="M461.883,778.482a3,3,0,1,0,2.994,3A2.994,2.994,0,0,0,461.883,778.482Z" transform="translate(-361.495 -677.096)" fill="#0f62ac"></path><path id="Path_119" data-name="Path 119" d="M470.354,778.482a3,3,0,1,0,3,3A3,3,0,0,0,470.354,778.482Z" transform="translate(-353.737 -677.096)" fill="#0f62ac"></path><path id="Path_120" data-name="Path 120" d="M478.83,778.482a3,3,0,1,0,3,3A3,3,0,0,0,478.83,778.482Z" transform="translate(-345.98 -677.096)" fill="#0f62ac"></path><path id="Path_121" data-name="Path 121" d="M487.3,778.482a3,3,0,1,0,3,3A3,3,0,0,0,487.3,778.482Z" transform="translate(-338.221 -677.096)" fill="#0f62ac"></path><path id="Path_122" data-name="Path 122" d="M495.774,778.482a3,3,0,1,0,3,3A3,3,0,0,0,495.774,778.482Z" transform="translate(-330.463 -677.096)" fill="#0f62ac"></path><path id="Path_123" data-name="Path 123" d="M504.25,778.482a3,3,0,1,0,3,3A3,3,0,0,0,504.25,778.482Z" transform="translate(-322.705 -677.096)" fill="#0f62ac"></path><path id="Path_124" data-name="Path 124" d="M512.723,778.482a3,3,0,1,0,2.994,3A3,3,0,0,0,512.723,778.482Z" transform="translate(-314.946 -677.096)" fill="#0f62ac"></path><path id="Path_125" data-name="Path 125" d="M521.2,778.482a3,3,0,1,0,3,3A3,3,0,0,0,521.2,778.482Z" transform="translate(-307.19 -677.096)" fill="#0f62ac"></path><path id="Path_126" data-name="Path 126" d="M529.669,778.482a3,3,0,1,0,3,3A3,3,0,0,0,529.669,778.482Z" transform="translate(-299.43 -677.096)" fill="#0f62ac"></path><path id="Path_127" data-name="Path 127" d="M538.145,778.482a3,3,0,1,0,2.992,3A3,3,0,0,0,538.145,778.482Z" transform="translate(-291.671 -677.096)" fill="#0f62ac"></path><path id="Path_128" data-name="Path 128" d="M546.619,778.482a3,3,0,1,0,2.994,3A3,3,0,0,0,546.619,778.482Z" transform="translate(-283.914 -677.096)" fill="#0f62ac"></path><path id="Path_129" data-name="Path 129" d="M554.325,783.967q-.618-2.54-1.328-5.04a2.995,2.995,0,0,0,1.328,5.04Z" transform="translate(-276.155 -676.689)" fill="#0f62ac"></path><path id="Path_130" data-name="Path 130" d="M410.622,786.043a2.98,2.98,0,0,0-1.354.326q-.417,2.385-.76,4.795a3,3,0,1,0,2.115-5.12Z" transform="translate(-407.624 -670.173)" fill="#0f62ac"></path><path id="Path_131" data-name="Path 131" d="M419.516,786.043a3,3,0,1,0,3,3A3,3,0,0,0,419.516,786.043Z" transform="translate(-400.289 -670.173)" fill="#0f62ac"></path><path id="Path_132" data-name="Path 132" d="M427.989,786.043a3,3,0,1,0,3,3A3,3,0,0,0,427.989,786.043Z" transform="translate(-392.529 -670.173)" fill="#0f62ac"></path><path id="Path_133" data-name="Path 133" d="M436.464,786.043a3,3,0,1,0,3,3A3,3,0,0,0,436.464,786.043Z" transform="translate(-384.771 -670.173)" fill="#0f62ac"></path><path id="Path_134" data-name="Path 134" d="M444.934,786.043a3,3,0,1,0,3,3A2.995,2.995,0,0,0,444.934,786.043Z" transform="translate(-377.012 -670.173)" fill="#0f62ac"></path><path id="Path_135" data-name="Path 135" d="M453.41,786.043a3,3,0,1,0,3,3A3,3,0,0,0,453.41,786.043Z" transform="translate(-369.255 -670.173)" fill="#0f62ac"></path><path id="Path_136" data-name="Path 136" d="M461.883,786.043a3,3,0,1,0,2.994,3A2.993,2.993,0,0,0,461.883,786.043Z" transform="translate(-361.495 -670.173)" fill="#0f62ac"></path><path id="Path_137" data-name="Path 137" d="M470.354,786.043a3,3,0,1,0,3,3A2.995,2.995,0,0,0,470.354,786.043Z" transform="translate(-353.737 -670.173)" fill="#0f62ac"></path><path id="Path_138" data-name="Path 138" d="M478.83,786.043a3,3,0,1,0,3,3A3,3,0,0,0,478.83,786.043Z" transform="translate(-345.98 -670.173)" fill="#0f62ac"></path><path id="Path_139" data-name="Path 139" d="M487.3,786.043a3,3,0,1,0,3,3A3,3,0,0,0,487.3,786.043Z" transform="translate(-338.221 -670.173)" fill="#0f62ac"></path><path id="Path_140" data-name="Path 140" d="M495.774,786.043a3,3,0,1,0,3,3A2.995,2.995,0,0,0,495.774,786.043Z" transform="translate(-330.463 -670.173)" fill="#0f62ac"></path><path id="Path_141" data-name="Path 141" d="M504.25,786.043a3,3,0,1,0,3,3A3,3,0,0,0,504.25,786.043Z" transform="translate(-322.705 -670.173)" fill="#0f62ac"></path><path id="Path_142" data-name="Path 142" d="M512.723,786.043a3,3,0,1,0,2.994,3A2.994,2.994,0,0,0,512.723,786.043Z" transform="translate(-314.946 -670.173)" fill="#0f62ac"></path><path id="Path_143" data-name="Path 143" d="M521.2,786.043a3,3,0,1,0,3,3A3,3,0,0,0,521.2,786.043Z" transform="translate(-307.19 -670.173)" fill="#0f62ac"></path><path id="Path_144" data-name="Path 144" d="M529.669,786.043a3,3,0,1,0,3,3A2.994,2.994,0,0,0,529.669,786.043Z" transform="translate(-299.43 -670.173)" fill="#0f62ac"></path><path id="Path_145" data-name="Path 145" d="M538.145,786.043a3,3,0,1,0,2.992,3A3,3,0,0,0,538.145,786.043Z" transform="translate(-291.671 -670.173)" fill="#0f62ac"></path><path id="Path_146" data-name="Path 146" d="M546.619,786.043a3,3,0,1,0,2.994,3A3,3,0,0,0,546.619,786.043Z" transform="translate(-283.914 -670.173)" fill="#0f62ac"></path><path id="Path_147" data-name="Path 147" d="M555.091,792.035a2.983,2.983,0,0,0,1.889-.672q-.356-2.575-.806-5.115a3,3,0,1,0-1.082,5.787Z" transform="translate(-276.155 -670.173)" fill="#0f62ac"></path><path id="Path_148" data-name="Path 148" d="M411.044,793.6a3,3,0,1,0,3,2.994A3,3,0,0,0,411.044,793.6Z" transform="translate(-408.046 -663.25)" fill="#0f62ac"></path><path id="Path_149" data-name="Path 149" d="M419.516,793.6a3,3,0,1,0,3,2.994A3,3,0,0,0,419.516,793.6Z" transform="translate(-400.289 -663.25)" fill="#0f62ac"></path><path id="Path_150" data-name="Path 150" d="M427.989,793.6a3,3,0,1,0,3,2.994A3,3,0,0,0,427.989,793.6Z" transform="translate(-392.529 -663.25)" fill="#0f62ac"></path><path id="Path_151" data-name="Path 151" d="M436.464,793.6a3,3,0,1,0,3,2.994A3,3,0,0,0,436.464,793.6Z" transform="translate(-384.771 -663.25)" fill="#0f62ac"></path><path id="Path_152" data-name="Path 152" d="M444.934,793.6a3,3,0,1,0,3,2.994A2.995,2.995,0,0,0,444.934,793.6Z" transform="translate(-377.012 -663.25)" fill="#0f62ac"></path><path id="Path_153" data-name="Path 153" d="M453.41,793.6a3,3,0,1,0,3,2.994A3,3,0,0,0,453.41,793.6Z" transform="translate(-369.255 -663.25)" fill="#0f62ac"></path><path id="Path_154" data-name="Path 154" d="M461.883,793.6a3,3,0,1,0,2.994,2.994A2.993,2.993,0,0,0,461.883,793.6Z" transform="translate(-361.495 -663.25)" fill="#0f62ac"></path><path id="Path_155" data-name="Path 155" d="M470.354,793.6a3,3,0,1,0,3,2.994A2.995,2.995,0,0,0,470.354,793.6Z" transform="translate(-353.737 -663.25)" fill="#0f62ac"></path><path id="Path_156" data-name="Path 156" d="M478.83,793.6a3,3,0,1,0,3,2.994A3,3,0,0,0,478.83,793.6Z" transform="translate(-345.98 -663.25)" fill="#0f62ac"></path><path id="Path_157" data-name="Path 157" d="M487.3,793.6a3,3,0,1,0,3,2.994A3,3,0,0,0,487.3,793.6Z" transform="translate(-338.221 -663.25)" fill="#0f62ac"></path><path id="Path_158" data-name="Path 158" d="M495.774,793.6a3,3,0,1,0,3,2.994A2.995,2.995,0,0,0,495.774,793.6Z" transform="translate(-330.463 -663.25)" fill="#0f62ac"></path><path id="Path_159" data-name="Path 159" d="M504.25,793.6a3,3,0,1,0,3,2.994A3,3,0,0,0,504.25,793.6Z" transform="translate(-322.705 -663.25)" fill="#0f62ac"></path><path id="Path_160" data-name="Path 160" d="M512.723,793.6a3,3,0,1,0,2.994,2.994A2.994,2.994,0,0,0,512.723,793.6Z" transform="translate(-314.946 -663.25)" fill="#0f62ac"></path><path id="Path_161" data-name="Path 161" d="M521.2,793.6a3,3,0,1,0,3,2.994A3,3,0,0,0,521.2,793.6Z" transform="translate(-307.19 -663.25)" fill="#0f62ac"></path><path id="Path_162" data-name="Path 162" d="M529.669,793.6a3,3,0,1,0,3,2.994A2.994,2.994,0,0,0,529.669,793.6Z" transform="translate(-299.43 -663.25)" fill="#0f62ac"></path><path id="Path_163" data-name="Path 163" d="M538.145,793.6a3,3,0,1,0,2.992,2.994A3,3,0,0,0,538.145,793.6Z" transform="translate(-291.671 -663.25)" fill="#0f62ac"></path><path id="Path_164" data-name="Path 164" d="M546.619,793.6a3,3,0,1,0,2.994,2.994A3,3,0,0,0,546.619,793.6Z" transform="translate(-283.914 -663.25)" fill="#0f62ac"></path><path id="Path_165" data-name="Path 165" d="M555.091,799.6a3,3,0,1,0-3-3A3,3,0,0,0,555.091,799.6Z" transform="translate(-276.155 -663.25)" fill="#0f62ac"></path><path id="Path_166" data-name="Path 166" d="M411.044,801.165a3,3,0,1,0,3,3A3,3,0,0,0,411.044,801.165Z" transform="translate(-408.046 -656.328)" fill="#0f62ac"></path><path id="Path_167" data-name="Path 167" d="M419.516,801.165a3,3,0,1,0,3,3A3,3,0,0,0,419.516,801.165Z" transform="translate(-400.289 -656.328)" fill="#0f62ac"></path><path id="Path_168" data-name="Path 168" d="M427.989,801.165a3,3,0,1,0,3,3A3,3,0,0,0,427.989,801.165Z" transform="translate(-392.529 -656.328)" fill="#0f62ac"></path><path id="Path_169" data-name="Path 169" d="M436.464,801.165a3,3,0,1,0,3,3A3,3,0,0,0,436.464,801.165Z" transform="translate(-384.771 -656.328)" fill="#0f62ac"></path><path id="Path_170" data-name="Path 170" d="M444.934,801.165a3,3,0,1,0,3,3A3,3,0,0,0,444.934,801.165Z" transform="translate(-377.012 -656.328)" fill="#0f62ac"></path><path id="Path_171" data-name="Path 171" d="M453.41,801.165a3,3,0,1,0,3,3A3,3,0,0,0,453.41,801.165Z" transform="translate(-369.255 -656.328)" fill="#0f62ac"></path><path id="Path_172" data-name="Path 172" d="M461.883,801.165a3,3,0,1,0,2.994,3A2.993,2.993,0,0,0,461.883,801.165Z" transform="translate(-361.495 -656.328)" fill="#0f62ac"></path><path id="Path_173" data-name="Path 173" d="M470.354,801.165a3,3,0,1,0,3,3A3,3,0,0,0,470.354,801.165Z" transform="translate(-353.737 -656.328)" fill="#0f62ac"></path><path id="Path_174" data-name="Path 174" d="M478.83,801.165a3,3,0,1,0,3,3A3,3,0,0,0,478.83,801.165Z" transform="translate(-345.98 -656.328)" fill="#0f62ac"></path><path id="Path_175" data-name="Path 175" d="M487.3,801.165a3,3,0,1,0,3,3A3,3,0,0,0,487.3,801.165Z" transform="translate(-338.221 -656.328)" fill="#0f62ac"></path><path id="Path_176" data-name="Path 176" d="M495.774,801.165a3,3,0,1,0,3,3A3,3,0,0,0,495.774,801.165Z" transform="translate(-330.463 -656.328)" fill="#0f62ac"></path><path id="Path_177" data-name="Path 177" d="M504.25,801.165a3,3,0,1,0,3,3A3,3,0,0,0,504.25,801.165Z" transform="translate(-322.705 -656.328)" fill="#0f62ac"></path><path id="Path_178" data-name="Path 178" d="M512.723,801.165a3,3,0,1,0,2.994,3A2.995,2.995,0,0,0,512.723,801.165Z" transform="translate(-314.946 -656.328)" fill="#0f62ac"></path><path id="Path_179" data-name="Path 179" d="M521.2,801.165a3,3,0,1,0,3,3A3,3,0,0,0,521.2,801.165Z" transform="translate(-307.19 -656.328)" fill="#0f62ac"></path><path id="Path_180" data-name="Path 180" d="M529.669,801.165a3,3,0,1,0,3,3A2.995,2.995,0,0,0,529.669,801.165Z" transform="translate(-299.43 -656.328)" fill="#0f62ac"></path><path id="Path_181" data-name="Path 181" d="M538.145,801.165a3,3,0,1,0,2.992,3A3,3,0,0,0,538.145,801.165Z" transform="translate(-291.671 -656.328)" fill="#0f62ac"></path><path id="Path_182" data-name="Path 182" d="M546.619,801.165a3,3,0,1,0,2.994,3A3,3,0,0,0,546.619,801.165Z" transform="translate(-283.914 -656.328)" fill="#0f62ac"></path><path id="Path_183" data-name="Path 183" d="M555.091,801.165a3,3,0,1,0,2.994,3A3,3,0,0,0,555.091,801.165Z" transform="translate(-276.155 -656.328)" fill="#0f62ac"></path><path id="Path_184" data-name="Path 184" d="M410.649,808.726a2.992,2.992,0,0,0-2.172.933q.325,2.359.724,4.686a3,3,0,1,0,1.448-5.618Z" transform="translate(-407.651 -649.405)" fill="#0f62ac"></path><path id="Path_185" data-name="Path 185" d="M419.516,808.726a3,3,0,1,0,3,3A3,3,0,0,0,419.516,808.726Z" transform="translate(-400.289 -649.405)" fill="#0f62ac"></path><path id="Path_186" data-name="Path 186" d="M427.989,808.726a3,3,0,1,0,3,3A3,3,0,0,0,427.989,808.726Z" transform="translate(-392.529 -649.405)" fill="#0f62ac"></path><path id="Path_187" data-name="Path 187" d="M436.464,808.726a3,3,0,1,0,3,3A3,3,0,0,0,436.464,808.726Z" transform="translate(-384.771 -649.405)" fill="#0f62ac"></path><path id="Path_188" data-name="Path 188" d="M444.934,808.726a3,3,0,1,0,3,3A3,3,0,0,0,444.934,808.726Z" transform="translate(-377.012 -649.405)" fill="#0f62ac"></path><path id="Path_189" data-name="Path 189" d="M453.41,808.726a3,3,0,1,0,3,3A3,3,0,0,0,453.41,808.726Z" transform="translate(-369.255 -649.405)" fill="#0f62ac"></path><path id="Path_190" data-name="Path 190" d="M461.883,808.726a3,3,0,1,0,2.994,3A2.993,2.993,0,0,0,461.883,808.726Z" transform="translate(-361.495 -649.405)" fill="#0f62ac"></path><path id="Path_191" data-name="Path 191" d="M470.354,808.726a3,3,0,1,0,3,3A3,3,0,0,0,470.354,808.726Z" transform="translate(-353.737 -649.405)" fill="#0f62ac"></path><path id="Path_192" data-name="Path 192" d="M478.83,808.726a3,3,0,1,0,3,3A3,3,0,0,0,478.83,808.726Z" transform="translate(-345.98 -649.405)" fill="#0f62ac"></path><path id="Path_193" data-name="Path 193" d="M487.3,808.726a3,3,0,1,0,3,3A3,3,0,0,0,487.3,808.726Z" transform="translate(-338.221 -649.405)" fill="#0f62ac"></path><path id="Path_194" data-name="Path 194" d="M495.774,808.726a3,3,0,1,0,3,3A3,3,0,0,0,495.774,808.726Z" transform="translate(-330.463 -649.405)" fill="#0f62ac"></path><path id="Path_195" data-name="Path 195" d="M504.25,808.726a3,3,0,1,0,3,3A3,3,0,0,0,504.25,808.726Z" transform="translate(-322.705 -649.405)" fill="#0f62ac"></path><path id="Path_196" data-name="Path 196" d="M512.723,808.726a3,3,0,1,0,2.994,3A2.994,2.994,0,0,0,512.723,808.726Z" transform="translate(-314.946 -649.405)" fill="#0f62ac"></path><path id="Path_197" data-name="Path 197" d="M521.2,808.726a3,3,0,1,0,3,3A3,3,0,0,0,521.2,808.726Z" transform="translate(-307.19 -649.405)" fill="#0f62ac"></path><path id="Path_198" data-name="Path 198" d="M529.669,808.726a3,3,0,1,0,3,3A2.994,2.994,0,0,0,529.669,808.726Z" transform="translate(-299.43 -649.405)" fill="#0f62ac"></path><path id="Path_199" data-name="Path 199" d="M538.145,808.726a3,3,0,1,0,2.992,3A3,3,0,0,0,538.145,808.726Z" transform="translate(-291.671 -649.405)" fill="#0f62ac"></path><path id="Path_200" data-name="Path 200" d="M546.619,808.726a3,3,0,1,0,2.994,3A3,3,0,0,0,546.619,808.726Z" transform="translate(-283.914 -649.405)" fill="#0f62ac"></path><path id="Path_201" data-name="Path 201" d="M552.093,811.722a3,3,0,0,0,3,3,2.954,2.954,0,0,0,1.17-.239q.434-2.5.78-5.029a3,3,0,0,0-4.948,2.272Z" transform="translate(-276.155 -649.405)" fill="#0f62ac"></path><path id="Path_202" data-name="Path 202" d="M409.807,816.3q.646,2.71,1.4,5.379a2.989,2.989,0,0,0-1.4-5.379Z" transform="translate(-406.434 -642.47)" fill="#0f62ac"></path><path id="Path_203" data-name="Path 203" d="M419.516,816.286a3,3,0,1,0,3,3A3,3,0,0,0,419.516,816.286Z" transform="translate(-400.289 -642.483)" fill="#0f62ac"></path><path id="Path_204" data-name="Path 204" d="M427.989,816.286a3,3,0,1,0,3,3A3,3,0,0,0,427.989,816.286Z" transform="translate(-392.529 -642.483)" fill="#0f62ac"></path><path id="Path_205" data-name="Path 205" d="M436.464,816.286a3,3,0,1,0,3,3A3,3,0,0,0,436.464,816.286Z" transform="translate(-384.771 -642.483)" fill="#0f62ac"></path><path id="Path_206" data-name="Path 206" d="M444.934,816.286a3,3,0,1,0,3,3A3,3,0,0,0,444.934,816.286Z" transform="translate(-377.012 -642.483)" fill="#0f62ac"></path><path id="Path_207" data-name="Path 207" d="M453.41,816.286a3,3,0,1,0,3,3A3,3,0,0,0,453.41,816.286Z" transform="translate(-369.255 -642.483)" fill="#0f62ac"></path><path id="Path_208" data-name="Path 208" d="M461.883,816.286a3,3,0,1,0,2.994,3A2.995,2.995,0,0,0,461.883,816.286Z" transform="translate(-361.495 -642.483)" fill="#0f62ac"></path><path id="Path_209" data-name="Path 209" d="M470.354,816.286a3,3,0,1,0,3,3A3,3,0,0,0,470.354,816.286Z" transform="translate(-353.737 -642.483)" fill="#0f62ac"></path><path id="Path_210" data-name="Path 210" d="M478.83,816.286a3,3,0,1,0,3,3A3,3,0,0,0,478.83,816.286Z" transform="translate(-345.98 -642.483)" fill="#0f62ac"></path><path id="Path_211" data-name="Path 211" d="M487.3,816.286a3,3,0,1,0,3,3A3,3,0,0,0,487.3,816.286Z" transform="translate(-338.221 -642.483)" fill="#0f62ac"></path><path id="Path_212" data-name="Path 212" d="M495.774,816.286a3,3,0,1,0,3,3A3,3,0,0,0,495.774,816.286Z" transform="translate(-330.463 -642.483)" fill="#0f62ac"></path><path id="Path_213" data-name="Path 213" d="M504.25,816.286a3,3,0,1,0,3,3A3,3,0,0,0,504.25,816.286Z" transform="translate(-322.705 -642.483)" fill="#0f62ac"></path><path id="Path_214" data-name="Path 214" d="M512.723,816.286a3,3,0,1,0,2.994,3A3,3,0,0,0,512.723,816.286Z" transform="translate(-314.946 -642.483)" fill="#0f62ac"></path><path id="Path_215" data-name="Path 215" d="M521.2,816.286a3,3,0,1,0,3,3A3,3,0,0,0,521.2,816.286Z" transform="translate(-307.19 -642.483)" fill="#0f62ac"></path><path id="Path_216" data-name="Path 216" d="M529.669,816.286a3,3,0,1,0,3,3A3,3,0,0,0,529.669,816.286Z" transform="translate(-299.43 -642.483)" fill="#0f62ac"></path><path id="Path_217" data-name="Path 217" d="M538.145,816.286a3,3,0,1,0,2.992,3A3,3,0,0,0,538.145,816.286Z" transform="translate(-291.671 -642.483)" fill="#0f62ac"></path><path id="Path_218" data-name="Path 218" d="M546.619,816.286a3,3,0,1,0,2.994,3A3,3,0,0,0,546.619,816.286Z" transform="translate(-283.914 -642.483)" fill="#0f62ac"></path><path id="Path_219" data-name="Path 219" d="M552.093,819.251a2.972,2.972,0,0,0,1.017,2.243q.715-2.566,1.345-5.172A3,3,0,0,0,552.093,819.251Z" transform="translate(-276.155 -642.45)" fill="#0f62ac"></path><path id="Path_220" data-name="Path 220" d="M419.516,823.847a3,3,0,1,0,3,3A3,3,0,0,0,419.516,823.847Z" transform="translate(-400.289 -635.56)" fill="#0f62ac"></path><path id="Path_221" data-name="Path 221" d="M427.989,823.847a3,3,0,1,0,3,3A3,3,0,0,0,427.989,823.847Z" transform="translate(-392.529 -635.56)" fill="#0f62ac"></path><path id="Path_222" data-name="Path 222" d="M436.464,823.847a3,3,0,1,0,3,3A3,3,0,0,0,436.464,823.847Z" transform="translate(-384.771 -635.56)" fill="#0f62ac"></path><path id="Path_223" data-name="Path 223" d="M444.934,823.847a3,3,0,1,0,3,3A3,3,0,0,0,444.934,823.847Z" transform="translate(-377.012 -635.56)" fill="#0f62ac"></path><path id="Path_224" data-name="Path 224" d="M453.41,823.847a3,3,0,1,0,3,3A3,3,0,0,0,453.41,823.847Z" transform="translate(-369.255 -635.56)" fill="#0f62ac"></path><path id="Path_225" data-name="Path 225" d="M461.883,823.847a3,3,0,1,0,2.994,3A2.993,2.993,0,0,0,461.883,823.847Z" transform="translate(-361.495 -635.56)" fill="#0f62ac"></path><path id="Path_226" data-name="Path 226" d="M470.354,823.847a3,3,0,1,0,3,3A3,3,0,0,0,470.354,823.847Z" transform="translate(-353.737 -635.56)" fill="#0f62ac"></path><path id="Path_227" data-name="Path 227" d="M478.83,823.847a3,3,0,1,0,3,3A3,3,0,0,0,478.83,823.847Z" transform="translate(-345.98 -635.56)" fill="#0f62ac"></path><path id="Path_228" data-name="Path 228" d="M487.3,823.847a3,3,0,1,0,3,3A3,3,0,0,0,487.3,823.847Z" transform="translate(-338.221 -635.56)" fill="#0f62ac"></path><path id="Path_229" data-name="Path 229" d="M495.774,823.847a3,3,0,1,0,3,3A3,3,0,0,0,495.774,823.847Z" transform="translate(-330.463 -635.56)" fill="#0f62ac"></path><path id="Path_230" data-name="Path 230" d="M504.25,823.847a3,3,0,1,0,3,3A3,3,0,0,0,504.25,823.847Z" transform="translate(-322.705 -635.56)" fill="#0f62ac"></path><path id="Path_231" data-name="Path 231" d="M512.723,823.847a3,3,0,1,0,2.994,3A2.994,2.994,0,0,0,512.723,823.847Z" transform="translate(-314.946 -635.56)" fill="#0f62ac"></path><path id="Path_232" data-name="Path 232" d="M521.2,823.847a3,3,0,1,0,3,3A3,3,0,0,0,521.2,823.847Z" transform="translate(-307.19 -635.56)" fill="#0f62ac"></path><path id="Path_233" data-name="Path 233" d="M529.669,823.847a3,3,0,1,0,3,3A2.994,2.994,0,0,0,529.669,823.847Z" transform="translate(-299.43 -635.56)" fill="#0f62ac"></path><path id="Path_234" data-name="Path 234" d="M538.145,823.847a3,3,0,1,0,2.992,3A3,3,0,0,0,538.145,823.847Z" transform="translate(-291.671 -635.56)" fill="#0f62ac"></path><path id="Path_235" data-name="Path 235" d="M546.619,823.847a3,3,0,1,0,2.994,3A3,3,0,0,0,546.619,823.847Z" transform="translate(-283.914 -635.56)" fill="#0f62ac"></path><path id="Path_236" data-name="Path 236" d="M419.516,831.408a3,3,0,1,0,3,3A3,3,0,0,0,419.516,831.408Z" transform="translate(-400.289 -628.637)" fill="#0f62ac"></path><path id="Path_237" data-name="Path 237" d="M427.989,831.408a3,3,0,1,0,3,3A3,3,0,0,0,427.989,831.408Z" transform="translate(-392.529 -628.637)" fill="#0f62ac"></path><path id="Path_238" data-name="Path 238" d="M436.464,831.408a3,3,0,1,0,3,3A3,3,0,0,0,436.464,831.408Z" transform="translate(-384.771 -628.637)" fill="#0f62ac"></path><path id="Path_239" data-name="Path 239" d="M444.934,831.408a3,3,0,1,0,3,3A2.994,2.994,0,0,0,444.934,831.408Z" transform="translate(-377.012 -628.637)" fill="#0f62ac"></path><path id="Path_240" data-name="Path 240" d="M453.41,831.408a3,3,0,1,0,3,3A2.995,2.995,0,0,0,453.41,831.408Z" transform="translate(-369.255 -628.637)" fill="#0f62ac"></path><path id="Path_241" data-name="Path 241" d="M461.883,831.408a3,3,0,1,0,2.994,3A2.992,2.992,0,0,0,461.883,831.408Z" transform="translate(-361.495 -628.637)" fill="#0f62ac"></path><path id="Path_242" data-name="Path 242" d="M470.354,831.408a3,3,0,1,0,3,3A2.994,2.994,0,0,0,470.354,831.408Z" transform="translate(-353.737 -628.637)" fill="#0f62ac"></path><path id="Path_243" data-name="Path 243" d="M478.83,831.408a3,3,0,1,0,3,3A2.995,2.995,0,0,0,478.83,831.408Z" transform="translate(-345.98 -628.637)" fill="#0f62ac"></path><path id="Path_244" data-name="Path 244" d="M487.3,831.408a3,3,0,1,0,3,3A2.995,2.995,0,0,0,487.3,831.408Z" transform="translate(-338.221 -628.637)" fill="#0f62ac"></path><path id="Path_245" data-name="Path 245" d="M495.774,831.408a3,3,0,1,0,3,3A2.994,2.994,0,0,0,495.774,831.408Z" transform="translate(-330.463 -628.637)" fill="#0f62ac"></path><path id="Path_246" data-name="Path 246" d="M504.25,831.408a3,3,0,1,0,3,3A2.995,2.995,0,0,0,504.25,831.408Z" transform="translate(-322.705 -628.637)" fill="#0f62ac"></path><path id="Path_247" data-name="Path 247" d="M512.723,831.408a3,3,0,1,0,2.994,3A2.993,2.993,0,0,0,512.723,831.408Z" transform="translate(-314.946 -628.637)" fill="#0f62ac"></path><path id="Path_248" data-name="Path 248" d="M521.2,831.408a3,3,0,1,0,3,3A3,3,0,0,0,521.2,831.408Z" transform="translate(-307.19 -628.637)" fill="#0f62ac"></path><path id="Path_249" data-name="Path 249" d="M529.669,831.408a3,3,0,1,0,3,3A2.993,2.993,0,0,0,529.669,831.408Z" transform="translate(-299.43 -628.637)" fill="#0f62ac"></path><path id="Path_250" data-name="Path 250" d="M538.145,831.408a3,3,0,1,0,2.992,3A2.995,2.995,0,0,0,538.145,831.408Z" transform="translate(-291.671 -628.637)" fill="#0f62ac"></path><path id="Path_251" data-name="Path 251" d="M546.619,831.408a3,3,0,1,0,2.994,3A3,3,0,0,0,546.619,831.408Z" transform="translate(-283.914 -628.637)" fill="#0f62ac"></path><path id="Path_252" data-name="Path 252" d="M427.989,838.969a3,3,0,1,0,3,3A3,3,0,0,0,427.989,838.969Z" transform="translate(-392.529 -621.714)" fill="#0f62ac"></path><path id="Path_253" data-name="Path 253" d="M436.464,838.969a3,3,0,1,0,3,3A3,3,0,0,0,436.464,838.969Z" transform="translate(-384.771 -621.714)" fill="#0f62ac"></path><path id="Path_254" data-name="Path 254" d="M444.934,838.969a3,3,0,1,0,3,3A3,3,0,0,0,444.934,838.969Z" transform="translate(-377.012 -621.714)" fill="#0f62ac"></path><path id="Path_255" data-name="Path 255" d="M453.41,838.969a3,3,0,1,0,3,3A3,3,0,0,0,453.41,838.969Z" transform="translate(-369.255 -621.714)" fill="#0f62ac"></path><path id="Path_256" data-name="Path 256" d="M461.883,838.969a3,3,0,1,0,2.994,3A2.993,2.993,0,0,0,461.883,838.969Z" transform="translate(-361.495 -621.714)" fill="#0f62ac"></path><path id="Path_257" data-name="Path 257" d="M470.354,838.969a3,3,0,1,0,3,3A3,3,0,0,0,470.354,838.969Z" transform="translate(-353.737 -621.714)" fill="#0f62ac"></path><path id="Path_258" data-name="Path 258" d="M478.83,838.969a3,3,0,1,0,3,3A3,3,0,0,0,478.83,838.969Z" transform="translate(-345.98 -621.714)" fill="#0f62ac"></path><path id="Path_259" data-name="Path 259" d="M487.3,838.969a3,3,0,1,0,3,3A3,3,0,0,0,487.3,838.969Z" transform="translate(-338.221 -621.714)" fill="#0f62ac"></path><path id="Path_260" data-name="Path 260" d="M495.774,838.969a3,3,0,1,0,3,3A3,3,0,0,0,495.774,838.969Z" transform="translate(-330.463 -621.714)" fill="#0f62ac"></path><path id="Path_261" data-name="Path 261" d="M504.25,838.969a3,3,0,1,0,3,3A3,3,0,0,0,504.25,838.969Z" transform="translate(-322.705 -621.714)" fill="#0f62ac"></path><path id="Path_262" data-name="Path 262" d="M512.723,838.969a3,3,0,1,0,2.994,3A2.994,2.994,0,0,0,512.723,838.969Z" transform="translate(-314.946 -621.714)" fill="#0f62ac"></path><path id="Path_263" data-name="Path 263" d="M521.2,838.969a3,3,0,1,0,3,3A3,3,0,0,0,521.2,838.969Z" transform="translate(-307.19 -621.714)" fill="#0f62ac"></path><path id="Path_264" data-name="Path 264" d="M529.669,838.969a3,3,0,1,0,3,3A2.994,2.994,0,0,0,529.669,838.969Z" transform="translate(-299.43 -621.714)" fill="#0f62ac"></path><path id="Path_265" data-name="Path 265" d="M538.145,838.969a3,3,0,1,0,2.992,3A3,3,0,0,0,538.145,838.969Z" transform="translate(-291.671 -621.714)" fill="#0f62ac"></path><path id="Path_266" data-name="Path 266" d="M427.568,846.529a2.99,2.99,0,0,0-2.115.873c1.3,1.515,2.622,3.009,3.979,4.467a2.994,2.994,0,0,0-1.864-5.341Z" transform="translate(-392.108 -614.792)" fill="#0f62ac"></path><path id="Path_267" data-name="Path 267" d="M436.464,846.529a3,3,0,1,0,3,3A3,3,0,0,0,436.464,846.529Z" transform="translate(-384.771 -614.792)" fill="#0f62ac"></path><path id="Path_268" data-name="Path 268" d="M444.934,846.529a3,3,0,1,0,3,3A3,3,0,0,0,444.934,846.529Z" transform="translate(-377.012 -614.792)" fill="#0f62ac"></path><path id="Path_269" data-name="Path 269" d="M453.41,846.529a3,3,0,1,0,3,3A3,3,0,0,0,453.41,846.529Z" transform="translate(-369.255 -614.792)" fill="#0f62ac"></path><path id="Path_270" data-name="Path 270" d="M461.883,846.529a3,3,0,1,0,2.994,3A2.995,2.995,0,0,0,461.883,846.529Z" transform="translate(-361.495 -614.792)" fill="#0f62ac"></path><path id="Path_271" data-name="Path 271" d="M470.354,846.529a3,3,0,1,0,3,3A3,3,0,0,0,470.354,846.529Z" transform="translate(-353.737 -614.792)" fill="#0f62ac"></path><path id="Path_272" data-name="Path 272" d="M478.83,846.529a3,3,0,1,0,3,3A3,3,0,0,0,478.83,846.529Z" transform="translate(-345.98 -614.792)" fill="#0f62ac"></path><path id="Path_273" data-name="Path 273" d="M487.3,846.529a3,3,0,1,0,3,3A3,3,0,0,0,487.3,846.529Z" transform="translate(-338.221 -614.792)" fill="#0f62ac"></path><path id="Path_274" data-name="Path 274" d="M495.774,846.529a3,3,0,1,0,3,3A3,3,0,0,0,495.774,846.529Z" transform="translate(-330.463 -614.792)" fill="#0f62ac"></path><path id="Path_275" data-name="Path 275" d="M504.25,846.529a3,3,0,1,0,3,3A3,3,0,0,0,504.25,846.529Z" transform="translate(-322.705 -614.792)" fill="#0f62ac"></path><path id="Path_276" data-name="Path 276" d="M512.723,846.529a3,3,0,1,0,2.994,3A3,3,0,0,0,512.723,846.529Z" transform="translate(-314.946 -614.792)" fill="#0f62ac"></path><path id="Path_277" data-name="Path 277" d="M521.2,846.529a3,3,0,1,0,3,3A3,3,0,0,0,521.2,846.529Z" transform="translate(-307.19 -614.792)" fill="#0f62ac"></path><path id="Path_278" data-name="Path 278" d="M529.669,846.529a3,3,0,1,0,3,3A3,3,0,0,0,529.669,846.529Z" transform="translate(-299.43 -614.792)" fill="#0f62ac"></path><path id="Path_279" data-name="Path 279" d="M535.147,849.527a2.98,2.98,0,0,0,.99,2.222q2.037-2.2,3.977-4.473a2.99,2.99,0,0,0-4.967,2.251Z" transform="translate(-291.671 -614.792)" fill="#0f62ac"></path><path id="Path_280" data-name="Path 280" d="M436.372,854.09a2.992,2.992,0,0,0-2.806,1.956q2.146,1.842,4.366,3.6a2.993,2.993,0,0,0-1.559-5.551Z" transform="translate(-384.68 -607.869)" fill="#0f62ac"></path><path id="Path_281" data-name="Path 281" d="M444.934,854.09a3,3,0,1,0,3,3A3,3,0,0,0,444.934,854.09Z" transform="translate(-377.012 -607.869)" fill="#0f62ac"></path><path id="Path_282" data-name="Path 282" d="M453.41,854.09a3,3,0,1,0,3,3A3,3,0,0,0,453.41,854.09Z" transform="translate(-369.255 -607.869)" fill="#0f62ac"></path><path id="Path_283" data-name="Path 283" d="M461.883,854.09a3,3,0,1,0,2.994,3A2.994,2.994,0,0,0,461.883,854.09Z" transform="translate(-361.495 -607.869)" fill="#0f62ac"></path><path id="Path_284" data-name="Path 284" d="M470.354,854.09a3,3,0,1,0,3,3A3,3,0,0,0,470.354,854.09Z" transform="translate(-353.737 -607.869)" fill="#0f62ac"></path><path id="Path_285" data-name="Path 285" d="M478.83,854.09a3,3,0,1,0,3,3A3,3,0,0,0,478.83,854.09Z" transform="translate(-345.98 -607.869)" fill="#0f62ac"></path><path id="Path_286" data-name="Path 286" d="M487.3,854.09a3,3,0,1,0,3,3A3,3,0,0,0,487.3,854.09Z" transform="translate(-338.221 -607.869)" fill="#0f62ac"></path><path id="Path_287" data-name="Path 287" d="M495.774,854.09a3,3,0,1,0,3,3A3,3,0,0,0,495.774,854.09Z" transform="translate(-330.463 -607.869)" fill="#0f62ac"></path><path id="Path_288" data-name="Path 288" d="M504.25,854.09a3,3,0,1,0,3,3A3,3,0,0,0,504.25,854.09Z" transform="translate(-322.705 -607.869)" fill="#0f62ac"></path><path id="Path_289" data-name="Path 289" d="M512.723,854.09a3,3,0,1,0,2.994,3A3,3,0,0,0,512.723,854.09Z" transform="translate(-314.946 -607.869)" fill="#0f62ac"></path><path id="Path_290" data-name="Path 290" d="M521.2,854.09a3,3,0,1,0,3,3A3,3,0,0,0,521.2,854.09Z" transform="translate(-307.19 -607.869)" fill="#0f62ac"></path><path id="Path_291" data-name="Path 291" d="M529.669,854.09a3,3,0,0,0-1.7,5.465q2.262-1.79,4.444-3.67A3,3,0,0,0,529.669,854.09Z" transform="translate(-299.43 -607.869)" fill="#0f62ac"></path><path id="Path_292" data-name="Path 292" d="M444.186,861.651a3,3,0,0,0-1.429.362c1.456.9,2.937,1.782,4.425,2.632A2.993,2.993,0,0,0,444.186,861.651Z" transform="translate(-376.264 -600.946)" fill="#0f62ac"></path><path id="Path_293" data-name="Path 293" d="M453.41,861.651a3,3,0,1,0,3,3A3,3,0,0,0,453.41,861.651Z" transform="translate(-369.255 -600.946)" fill="#0f62ac"></path><path id="Path_294" data-name="Path 294" d="M461.883,861.651a3,3,0,1,0,2.994,3A2.994,2.994,0,0,0,461.883,861.651Z" transform="translate(-361.495 -600.946)" fill="#0f62ac"></path><path id="Path_295" data-name="Path 295" d="M470.354,861.651a3,3,0,1,0,3,3A3,3,0,0,0,470.354,861.651Z" transform="translate(-353.737 -600.946)" fill="#0f62ac"></path><path id="Path_296" data-name="Path 296" d="M478.83,861.651a3,3,0,1,0,3,3A3,3,0,0,0,478.83,861.651Z" transform="translate(-345.98 -600.946)" fill="#0f62ac"></path><path id="Path_297" data-name="Path 297" d="M487.3,861.651a3,3,0,1,0,3,3A3,3,0,0,0,487.3,861.651Z" transform="translate(-338.221 -600.946)" fill="#0f62ac"></path><path id="Path_298" data-name="Path 298" d="M495.774,861.651a3,3,0,1,0,3,3A3,3,0,0,0,495.774,861.651Z" transform="translate(-330.463 -600.946)" fill="#0f62ac"></path><path id="Path_299" data-name="Path 299" d="M504.25,861.651a3,3,0,1,0,3,3A3,3,0,0,0,504.25,861.651Z" transform="translate(-322.705 -600.946)" fill="#0f62ac"></path><path id="Path_300" data-name="Path 300" d="M512.723,861.651a3,3,0,1,0,2.994,3A3,3,0,0,0,512.723,861.651Z" transform="translate(-314.946 -600.946)" fill="#0f62ac"></path><path id="Path_301" data-name="Path 301" d="M518.2,864.5q2.161-1.238,4.276-2.554a2.944,2.944,0,0,0-1.289-.3A2.992,2.992,0,0,0,518.2,864.5Z" transform="translate(-307.184 -600.946)" fill="#0f62ac"></path><path id="Path_302" data-name="Path 302" d="M461.294,869.211a2.96,2.96,0,0,0-1.764.58q2.261.707,4.555,1.337A2.993,2.993,0,0,0,461.294,869.211Z" transform="translate(-360.907 -594.024)" fill="#0f62ac"></path><path id="Path_303" data-name="Path 303" d="M470.354,869.211a3,3,0,0,0-2.619,4.448q2.281.437,4.594.8a3,3,0,0,0-1.975-5.251Z" transform="translate(-353.737 -594.024)" fill="#0f62ac"></path><path id="Path_304" data-name="Path 304" d="M478.83,869.211a3,3,0,1,0,3,3A3,3,0,0,0,478.83,869.211Z" transform="translate(-345.98 -594.024)" fill="#0f62ac"></path><path id="Path_305" data-name="Path 305" d="M487.3,869.211a3,3,0,1,0,3,3A3,3,0,0,0,487.3,869.211Z" transform="translate(-338.221 -594.024)" fill="#0f62ac"></path><path id="Path_306" data-name="Path 306" d="M495.774,869.211a2.995,2.995,0,0,0-2.007,5.216c1.561-.251,3.115-.523,4.659-.826a2.964,2.964,0,0,0,.347-1.393A3,3,0,0,0,495.774,869.211Z" transform="translate(-330.463 -594.024)" fill="#0f62ac"></path><path id="Path_307" data-name="Path 307" d="M501.374,871.052q2.241-.623,4.456-1.318a3,3,0,0,0-4.456,1.318Z" transform="translate(-322.594 -594.024)" fill="#0f62ac"></path></g></g></svg> 